<svg xmlns="http://www.w3.org/2000/svg" version="1.1" xmlns:xlink="http://www.w3.org/1999/xlink" xmlns:svgjs="http://svgjs.dev/svgjs" width="1500" height="1500" viewBox="0 0 1500 1500"><rect width="1500" height="1500" fill="#fdf8f1"></rect><g transform="matrix(0.6666666666666666,0,0,0.6666666666666666,249.85778443113782,249.85778443113765)"><svg viewBox="0 0 334 334" data-background-color="#fdf8f1" preserveAspectRatio="xMidYMid meet" height="1500" width="1500" xmlns="http://www.w3.org/2000/svg" xmlns:xlink="http://www.w3.org/1999/xlink"><g id="tight-bounds" transform="matrix(1,0,0,1,0.04749999999998522,0.04750000000001364)"><svg viewBox="0 0 333.90454557049503 333.90454557049503" height="333.90454557049503" width="333.90454557049503"><g><svg></svg></g><g><svg viewBox="0 0 333.90454557049503 333.90454557049503" height="333.90454557049503" width="333.90454557049503"><g><path d="M0 166.952c0-92.205 74.747-166.952 166.952-166.952 92.205 0 166.952 74.747 166.953 166.952 0 92.205-74.747 166.952-166.953 166.953-92.205 0-166.952-74.747-166.952-166.953zM166.952 320.323c84.705 0 153.371-68.667 153.371-153.371 0-84.705-68.667-153.371-153.371-153.371-84.705 0-153.371 68.667-153.371 153.371 0 84.705 68.667 153.371 153.371 153.371z" data-fill-palette-color="tertiary" fill="#fa4238" stroke="transparent"></path><ellipse rx="160.27418187383762" ry="160.27418187383762" cx="166.95227278524752" cy="166.95227278524752" fill="#fa4238" stroke="transparent" stroke-width="0" fill-opacity="1" data-fill-palette-color="tertiary"></ellipse></g><g transform="matrix(1,0,0,1,134.74346297042507,71.17305217166896)"><svg viewBox="0 0 64.41761962964492 191.55844122715712" height="191.55844122715712" width="64.41761962964492"><g><svg viewBox="0 0 64.41761962964492 191.55844122715712" height="191.55844122715712" width="64.41761962964492"><g><svg viewBox="0 0 81.93757840877753 243.65747893438427" height="191.55844122715712" width="64.41761962964492"><g transform="matrix(1,0,0,1,0,52.099037707227154)"><svg viewBox="0 0 81.93757840877753 191.55844122715712" height="191.55844122715712" width="81.93757840877753"><g id="textblocktransform"><svg viewBox="0 0 81.93757840877753 191.55844122715712" height="191.55844122715712" width="81.93757840877753" id="textblock"><g><svg viewBox="0 0 81.93757840877753 191.55844122715712" height="191.55844122715712" width="81.93757840877753"><g transform="matrix(1,0,0,1,0,0)"><svg width="81.93757840877753" viewBox="-0.42 -37.35 16.19 37.84" height="191.55844122715712" data-palette-color="#fdf8f1"><path d="M-0.42-1.25L0.78-4.44Q0.78-4.44 1.34-4.17L1.34-4.17Q4-2.91 6.98-2.91L6.98-2.91Q9.57-2.91 10.64-4.52L10.64-4.52Q11.67-6.08 11.67-9.86L11.67-9.86 11.67-37.35 15.77-37.35 15.77-12.6Q15.77-8.03 15.39-6.15 15.01-4.27 14.44-3.13 13.87-1.98 12.89-1.17L12.89-1.17Q10.89 0.49 6.98 0.49L6.98 0.49Q3.61 0.49 0.66-0.73L0.66-0.73Q-0.05-1.03-0.42-1.25L-0.42-1.25Z" opacity="1" transform="matrix(1,0,0,1,0,0)" fill="#fdf8f1" class="wordmark-text-0" data-fill-palette-color="quaternary" id="text-0"></path></svg></g></svg></g></svg></g></svg></g><g transform="matrix(1,0,0,1,15.650077476076508,0)"><svg viewBox="0 0 50.63742345662451 6.8766871360848105" height="6.8766871360848105" width="50.63742345662451"><g><svg xmlns="http://www.w3.org/2000/svg" data-name="Your Icon" viewBox="9.5 39 81 11" x="0" y="0" height="6.8766871360848105" width="50.63742345662451" class="icon-icon-0" data-fill-palette-color="quaternary" id="icon-0"><path d="M38 45H23a2.5 2.5 0 0 0 0 5H38a2.5 2.5 0 0 0 0-5Z" fill="#fdf8f1" data-fill-palette-color="quaternary"></path><path d="M63 45H48a2.5 2.5 0 0 0 0 5H63a2.5 2.5 0 0 0 0-5Z" fill="#fdf8f1" data-fill-palette-color="quaternary"></path><path d="M88 45H73a2.5 2.5 0 0 0 0 5H88a2.5 2.5 0 0 0 0-5Z" fill="#fdf8f1" data-fill-palette-color="quaternary"></path><circle cx="13" cy="42.5" r="3.5" fill="#fdf8f1" data-fill-palette-color="quaternary"></circle></svg></g></svg></g><g></g></svg></g></svg></g></svg></g></svg></g><defs></defs></svg><rect width="333.90454557049503" height="333.90454557049503" fill="none" stroke="none" visibility="hidden"></rect></g></svg></g></svg>